<svg xmlns="http://www.w3.org/2000/svg" width="1600" height="1067" viewBox="0 0 1600 1067" role="img" aria-label="Vineyard placeholder for contact page">
  <defs>
    <linearGradient id="bg" x1="0" y1="0" x2="0" y2="1">
      <stop offset="0" stop-color="#efe6d8"/>
      <stop offset="1" stop-color="#141414"/>
    </linearGradient>
    <linearGradient id="wine" x1="0" y1="0" x2="1" y2="0">
      <stop offset="0" stop-color="#7a1d33" stop-opacity="0.35"/>
      <stop offset="1" stop-color="#7a1d33" stop-opacity="0"/>
    </linearGradient>
  </defs>
  <rect width="1600" height="1067" fill="url(#bg)"/>
  <path d="M0 640 C340 520, 520 520, 800 640 S1260 760, 1600 640 L1600 1067 L0 1067 Z" fill="#0f0f0f" opacity="0.18"/>
  <path d="M0 320 C420 220, 840 220, 1600 320 L1600 480 C980 580, 520 560, 0 480 Z" fill="url(#wine)"/>
  <g opacity="0.15" stroke="#1b1b1b" stroke-width="8">
    <path d="M220 1067 L220 520"/>
    <path d="M520 1067 L520 540"/>
    <path d="M820 1067 L820 520"/>
    <path d="M1120 1067 L1120 540"/>
    <path d="M1420 1067 L1420 520"/>
  </g>
</svg>

