<svg xmlns="http://www.w3.org/2000/svg" width="1600" height="1067" viewBox="0 0 1600 1067" role="img" aria-label="Tasting glasses placeholder">
  <defs>
    <linearGradient id="bg" x1="0" y1="0" x2="1" y2="1">
      <stop offset="0" stop-color="#141414"/>
      <stop offset="0.55" stop-color="#f6f0e6"/>
      <stop offset="1" stop-color="#efe6d8"/>
    </linearGradient>
    <linearGradient id="wine" x1="0" y1="0" x2="0" y2="1">
      <stop offset="0" stop-color="#7a1d33" stop-opacity="0.75"/>
      <stop offset="1" stop-color="#4b1122" stop-opacity="0.55"/>
    </linearGradient>
  </defs>
  <rect width="1600" height="1067" fill="url(#bg)"/>

  <g opacity="0.22" fill="none" stroke="#1b1b1b" stroke-width="10">
    <path d="M520 260 C420 440, 460 560, 520 640 C580 560, 620 440, 520 260 Z"/>
    <path d="M520 640 L520 820"/>
    <path d="M460 820 L580 820"/>

    <path d="M980 260 C880 440, 920 560, 980 640 C1040 560, 1080 440, 980 260 Z"/>
    <path d="M980 640 L980 820"/>
    <path d="M920 820 L1040 820"/>
  </g>

  <path d="M448 474 C464 548, 488 596, 520 640 C552 596, 576 548, 592 474 Z" fill="url(#wine)" opacity="0.18"/>
  <path d="M908 474 C924 548, 948 596, 980 640 C1012 596, 1036 548, 1052 474 Z" fill="url(#wine)" opacity="0.16"/>
</svg>

